<mxfile host="65bd71144e">
    <diagram id="hX1qsr6RL52mCfaVtnLD" name="Page-1">
        <mxGraphModel dx="457" dy="418" grid="1" gridSize="10" guides="1" tooltips="1" connect="1" arrows="1" fold="1" page="1" pageScale="1" pageWidth="850" pageHeight="1100" math="0" shadow="0">
            <root>
                <mxCell id="0"/>
                <mxCell id="1" parent="0"/>
                <mxCell id="2" value="Joseph Poole" style="whiteSpace=wrap;html=1;" vertex="1" parent="1">
                    <mxGeometry x="110" y="160" width="120" height="60" as="geometry"/>
                </mxCell>
                <mxCell id="3" value="Sarah Poole" style="ellipse;whiteSpace=wrap;html=1;" vertex="1" parent="1">
                    <mxGeometry x="290" y="160" width="120" height="60" as="geometry"/>
                </mxCell>
                <mxCell id="6" style="edgeStyle=none;shape=link;html=1;" edge="1" parent="1" source="4" target="5">
                    <mxGeometry relative="1" as="geometry"/>
                </mxCell>
                <mxCell id="11" value="MARRIED" style="edgeLabel;html=1;align=center;verticalAlign=middle;resizable=0;points=[];" vertex="1" connectable="0" parent="6">
                    <mxGeometry x="-0.4025" y="-2" relative="1" as="geometry">
                        <mxPoint x="-1" as="offset"/>
                    </mxGeometry>
                </mxCell>
                <mxCell id="10" value="" style="edgeStyle=none;shape=link;html=1;" edge="1" parent="1" target="9">
                    <mxGeometry relative="1" as="geometry">
                        <mxPoint x="400" y="440" as="sourcePoint"/>
                    </mxGeometry>
                </mxCell>
                <mxCell id="14" value="" style="edgeStyle=none;shape=link;html=1;" edge="1" parent="1" target="13">
                    <mxGeometry relative="1" as="geometry">
                        <mxPoint x="400" y="440" as="sourcePoint"/>
                    </mxGeometry>
                </mxCell>
                <mxCell id="16" value="" style="edgeStyle=none;shape=link;html=1;" edge="1" parent="1" source="4" target="15">
                    <mxGeometry relative="1" as="geometry"/>
                </mxCell>
                <mxCell id="17" value="BROTHERS" style="edgeLabel;html=1;align=center;verticalAlign=middle;resizable=0;points=[];" vertex="1" connectable="0" parent="16">
                    <mxGeometry x="-0.2583" y="-2" relative="1" as="geometry">
                        <mxPoint as="offset"/>
                    </mxGeometry>
                </mxCell>
                <mxCell id="4" value="G9QG-2DY" style="whiteSpace=wrap;html=1;" vertex="1" parent="1">
                    <mxGeometry x="380" y="470" width="120" height="60" as="geometry"/>
                </mxCell>
                <mxCell id="5" value="G9Q5-3P5" style="ellipse;whiteSpace=wrap;html=1;" vertex="1" parent="1">
                    <mxGeometry x="380" y="360" width="120" height="60" as="geometry"/>
                </mxCell>
                <mxCell id="7" value="Well Researched" style="text;html=1;align=center;verticalAlign=middle;resizable=0;points=[];autosize=1;strokeColor=none;fillColor=none;" vertex="1" parent="1">
                    <mxGeometry x="365" y="280" width="110" height="20" as="geometry"/>
                </mxCell>
                <mxCell id="9" value="GQJ4-SZB" style="whiteSpace=wrap;html=1;" vertex="1" parent="1">
                    <mxGeometry x="140" y="460" width="120" height="60" as="geometry"/>
                </mxCell>
                <mxCell id="12" value="John Poole" style="shape=parallelogram;perimeter=parallelogramPerimeter;whiteSpace=wrap;html=1;fixedSize=1;" vertex="1" parent="1">
                    <mxGeometry x="130" y="230" width="120" height="60" as="geometry"/>
                </mxCell>
                <mxCell id="13" value="LC2N-YCM" style="shape=parallelogram;perimeter=parallelogramPerimeter;whiteSpace=wrap;html=1;fixedSize=1;" vertex="1" parent="1">
                    <mxGeometry x="100" y="370" width="120" height="60" as="geometry"/>
                </mxCell>
                <mxCell id="15" value="G7DQ-12M" style="shape=parallelogram;perimeter=parallelogramPerimeter;whiteSpace=wrap;html=1;fixedSize=1;" vertex="1" parent="1">
                    <mxGeometry x="380" y="610" width="120" height="60" as="geometry"/>
                </mxCell>
            </root>
        </mxGraphModel>
    </diagram>
</mxfile>